<?xml version="1.0" encoding="UTF-8" standalone="no"?>
<svg width="304px" height="545px" viewBox="0 0 304 545" version="1.1" xmlns="http://www.w3.org/2000/svg" xmlns:xlink="http://www.w3.org/1999/xlink" xmlns:sketch="http://www.bohemiancoding.com/sketch/ns">
    <!-- Generator: Sketch 3.2.2 (9983) - http://www.bohemiancoding.com/sketch -->
    <title>TurtleBotIcon</title>
    <desc>Created with Sketch.</desc>
    <defs></defs>
    <g id="Page-1" stroke="none" stroke-width="1" fill="none" fill-rule="evenodd" sketch:type="MSPage">
        <g id="TurtleBotIcon" sketch:type="MSLayerGroup">
            <path d="M147.696653,545 C158.549395,545 167.34728,536.194085 167.34728,525.331439 C156.334962,529.577148 158.549394,528.410157 147.696652,528.410157 C136.84391,528.410157 137.804687,528.410157 128.046025,525.331439 C128.046025,536.194085 136.843911,545 147.696653,545 Z" id="Oval-5" fill="#494949" sketch:type="MSShapeGroup"></path>
            <rect id="Rectangle-9" fill="#494949" sketch:type="MSShapeGroup" x="16.4811715" y="400.731733" width="199.041841" height="7.89939044"></rect>
            <rect id="Rectangle-10" fill="#494949" sketch:type="MSShapeGroup" x="16.4811715" y="355.59236" width="238.343096" height="7.89939044"></rect>
            <rect id="Rectangle-11" fill="#494949" sketch:type="MSShapeGroup" x="16.4811715" y="220.174238" width="238.343096" height="7.89939044"></rect>
            <rect id="Rectangle-12" fill="#494949" sketch:type="MSShapeGroup" x="40.5690377" y="210.639426" width="10.1422594" height="270.214696" rx="5"></rect>
            <rect id="Rectangle-13" fill="#494949" sketch:type="MSShapeGroup" x="192.702929" y="210.639426" width="10.1422594" height="260.200012" rx="5"></rect>
            <rect id="Rectangle-14" fill="#494949" sketch:type="MSShapeGroup" x="230.736402" y="321.230893" width="10.1422594" height="39.4969522"></rect>
            <ellipse id="Oval-6" fill="#494949" sketch:type="MSShapeGroup" cx="27.2573222" cy="531.676136" rx="13.3117155" ry="13.3238636"></ellipse>
            <ellipse id="Oval-7" fill="#494949" sketch:type="MSShapeGroup" cx="268.135983" cy="531.676136" rx="13.3117155" ry="13.3238636"></ellipse>
            <rect id="Rectangle-15" fill="#494949" sketch:type="MSShapeGroup" x="13.9456067" y="378.176578" width="249.753138" height="22.8409091" rx="6"></rect>
            <rect id="Rectangle-16" fill="#494949" sketch:type="MSShapeGroup" x="207.916318" y="305.170455" width="57.0502092" height="22.7741228" rx="5"></rect>
            <polygon id="Triangle-1" fill="#494949" sketch:type="MSShapeGroup" points="235.807531 322.935606 254.824268 340.700758 216.790795 340.700758 "></polygon>
            <path d="M263.109424,315.317013 C314.580895,315.317013 314.697274,390.842674 263.109424,390.842675" id="Path-101" stroke="#494949" stroke-width="3" sketch:type="MSShapeGroup"></path>
            <path d="M263.109424,391.453377 C298.567235,391.453377 298.647406,444.74883 263.109424,444.748831" id="Path-102" stroke="#494949" stroke-width="3" sketch:type="MSShapeGroup"></path>
            <path d="M295.393305,507.181227 L295.393305,533.579545 L0,533.579545 L0,507.181227 L0,464.186787 C0,457.556626 5.37926433,452.181818 11.9917169,452.181818 L16.327651,452.181818 L16.327651,441.700402 L186.713326,441.700402 L217.382861,423.181818 L278.081355,447.390803 L278.30836,452.181818 L283.401589,452.181818 C290.024431,452.181818 295.393305,457.557513 295.393305,464.186787 L295.393305,507.181227 Z" id="Rectangle-1" fill="#494949" sketch:type="MSShapeGroup"></path>
            <g id="icon-3" transform="translate(25.000000, 0.000000)" fill="#494949" sketch:type="MSShapeGroup">
                <g id="Path-+-Oval-4" transform="translate(177.000000, 27.000000)">
                    <path d="M3.67994896,40.1792603 C-0.905977557,32.7267528 -0.952249386,28.3006666 13.7324214,24.9179688 C18.2690506,23.8729303 23.2005715,0 28,0 C67.764502,0 100,37.608081 100,84 C100,130.391919 67.764502,168 28,168 C23.2684559,168 23.0431335,161.213647 18.56641,160.197266 C0.422844241,156.078006 3.2463858,146.549934 9.51936095,132.065321 C13.6391648,133.324848 17.99476,134 22.5,134 C48.1812409,134 69,112.061953 69,85 C69,57.9380473 48.1812409,36 22.5,36 C15.801447,36 9.43371119,37.4925468 3.67994896,40.1792603 Z" id="Path"></path>
                </g>
                <path d="M0,9.99759751 C0,4.47607687 4.48627976,-7.10542736e-14 9.99252457,-7.10542736e-14 L199.007475,-7.10542736e-14 C204.526194,-7.10542736e-14 209,4.47702645 209,9.99759751 L209,211.002402 C209,216.523923 204.51372,221 199.007475,221 L9.99252457,221 C4.47380564,221 0,216.522974 0,211.002402 L0,9.99759751 Z M103.980835,37.1947151 C105.845246,37.1947151 107.326024,38.2258835 107.326024,38.2258835 C107.326024,38.2258835 129.702214,52.4260331 117.399056,76.6039178 C120.114629,77.7279402 122.712913,79.1818387 125.171101,80.9322185 L125.242778,81.021 C126.102899,81.6392123 126.945916,82.290005 127.771828,82.9798941 C130.186847,76.8759638 135.086119,71.6867271 140.737182,71.6867271 C152.338234,71.6867271 201.414029,112.731464 186.246243,119.87145 C176.718931,124.353693 157.692001,100.325677 150.999995,100.325677 C147.785943,100.325677 145.189288,101.884648 142.270903,102.75943 C145.878363,110.982713 147.943958,120.475001 147.943958,130.578985 C147.943958,142.562041 145.041048,153.688234 140.097793,162.855532 C146.36381,168.935027 153.726971,177.330171 153.726971,183.223958 C153.726971,193.485143 148.81874,196.162434 143.90888,196.162434 C139.004721,196.162434 129.189074,192.130614 129.189074,183.223958 C129.189074,181.418192 129.281928,179.18155 129.427725,176.773862 C123.58851,182.135774 116.692062,185.70088 109.228717,186.851781 C107.364305,190.509741 105.30767,193.090106 103.980835,194.091137 C102.654,193.090106 100.597365,190.509741 98.7329538,186.851781 C91.269608,185.701695 84.3731604,182.134145 78.5323165,176.772233 C78.6797426,179.18155 78.7725966,181.418192 78.7725966,183.223958 C78.7725966,192.130614 68.9577633,196.162434 64.0511612,196.162434 C59.1429301,196.162434 54.2346989,193.485143 54.2346989,183.223958 C54.2346989,177.330171 61.5962311,168.933398 67.8622488,162.853903 C62.9206228,153.688234 60.0177127,142.562041 60.0177127,130.578985 C60.0177127,120.479888 62.0800495,110.992487 65.6834372,102.772462 C62.7487614,101.900938 60.1423326,100.325677 56.91199,100.325677 C50.2183551,100.325677 31.1922398,124.353693 21.6657427,119.87145 C6.49714187,112.731464 55.5729372,71.6867271 67.1731742,71.6867271 C72.823423,71.6867271 77.7251381,76.8759638 80.1393427,82.9798941 C83.3517661,80.296087 86.8500822,78.1408963 90.5626142,76.6039178 C78.2586414,52.4260331 100.633203,38.2258835 100.633203,38.2258835 C100.633203,38.2258835 102.114795,37.1947151 103.980835,37.1947151 Z" id="Rectangle-1"></path>
                <path d="M103.980835,81.9658304 C84.1858233,81.9658304 68.0837952,103.773494 68.0837952,130.578985 C68.0837952,157.383661 84.1858233,179.192139 103.980835,179.192139 C123.775033,179.192139 139.877875,157.383661 139.877875,130.578985 C139.877875,103.773494 123.775033,81.9658304 103.980835,81.9658304 Z M116.759324,149.734024 C116.759324,146.583503 119.313624,144.029203 122.465774,144.029203 C125.617109,144.029203 128.173039,146.583503 128.173039,149.734024 C128.173039,152.885359 125.617109,155.441288 122.465774,155.441288 C119.313624,155.441288 116.759324,152.885359 116.759324,149.734024 Z M97.9150053,149.734024 C97.9150053,146.583503 100.468491,144.029203 103.620641,144.029203 C106.77279,144.029203 109.327091,146.583503 109.327091,149.734024 C109.327091,152.885359 106.77279,155.441288 103.620641,155.441288 C100.468491,155.441288 97.9150053,152.885359 97.9150053,149.734024 Z M79.0683236,149.734024 C79.0683236,146.583503 81.6242528,144.029203 84.7747735,144.029203 C87.9261088,144.029203 90.482038,146.583503 90.482038,149.734024 C90.482038,152.885359 87.9261088,155.441288 84.7747735,155.441288 C81.6242528,155.441288 79.0683236,152.885359 79.0683236,149.734024 Z M122.464795,125.18342 C125.616945,125.18342 128.172874,127.73772 128.172874,130.889055 C128.172874,134.041205 125.616945,136.597134 122.464795,136.597134 C119.31346,136.597134 116.759159,134.041205 116.759159,130.889055 C116.759159,127.73772 119.31346,125.18342 122.464795,125.18342 Z M122.464795,106.337558 C125.616945,106.337558 128.172874,108.892673 128.172874,112.044822 C128.172874,115.196972 125.616945,117.752087 122.464795,117.752087 C119.31346,117.752087 116.759159,115.196972 116.759159,112.044822 C116.759159,108.892673 119.31346,106.337558 122.464795,106.337558 Z M103.620556,125.18342 C106.772706,125.18342 109.327006,127.73772 109.327006,130.889055 C109.327006,134.041205 106.772706,136.597134 103.620556,136.597134 C100.468406,136.597134 97.9149206,134.041205 97.9149206,130.889055 C97.9149206,127.73772 100.468406,125.18342 103.620556,125.18342 Z M103.620556,106.337558 C106.772706,106.337558 109.327006,108.892673 109.327006,112.044822 C109.327006,115.196972 106.772706,117.752087 103.620556,117.752087 C100.468406,117.752087 97.9149206,115.196972 97.9149206,112.044822 C97.9149206,108.892673 100.468406,106.337558 103.620556,106.337558 Z M84.7746944,125.18342 C87.9260297,125.18342 90.4819589,127.73772 90.4819589,130.889055 C90.4819589,134.041205 87.9260297,136.597134 84.7746944,136.597134 C81.6241737,136.597134 79.0682445,134.041205 79.0682445,130.889055 C79.0682445,127.73772 81.6241737,125.18342 84.7746944,125.18342 Z M84.7746944,106.337558 C87.9260297,106.337558 90.4819589,108.892673 90.4819589,112.044822 C90.4819589,115.196972 87.9260297,117.752087 84.7746944,117.752087 C81.6241737,117.752087 79.0682445,115.196972 79.0682445,112.044822 C79.0682445,108.892673 81.6241737,106.337558 84.7746944,106.337558 Z" id="path2897-path"></path>
            </g>
        </g>
    </g>
</svg>